<?xml version="1.0" encoding="utf-8"?>
<!-- Generator: Adobe Illustrator 19.0.0, SVG Export Plug-In . SVG Version: 6.00 Build 0)  -->
<svg version="1.1" id="Layer_1" xmlns="http://www.w3.org/2000/svg" xmlns:xlink="http://www.w3.org/1999/xlink" x="0px" y="0px"
	 viewBox="0 0 96 96" style="enable-background:new 0 0 96 96;" xml:space="preserve">
<style type="text/css">
	.st0{fill:#333333;}
</style>
<g id="XMLID_2_">
	<path id="XMLID_7_" class="st0" d="M61.8,43.3h-1.2c-0.5,0-0.9,0.5-1,1.1h-4.3l-1.8-7.5c1.1-1.3,1.8-2.9,1.8-4.7
		c0-3.4-2.4-6.2-5.6-6.9V18h-3.3v7.3c-3,0.8-5.2,3.6-5.2,6.8c0,1.9,0.7,3.6,2,4.9l-1.8,7.3h-4.9c-0.1-0.6-0.5-1.1-1-1.1h-1.2
		c-0.6,0-1.1,0.6-1.1,1.3v0.1c0,0.7,0.5,1.9,1.1,1.9h1.2c0.4,0,0.7-0.5,0.9-1.1H41l-7.1,29.4l1.1,0.3l-0.6,2.1
		c-0.1,0.3,0.1,0.6,0.4,0.7l0.2,0c0.2,0,0.5-0.2,0.5-0.4l0.6-2.1l0.5,0.2l2.8-3.6l6.3-26.6h1.8v2.2c0,0.6,0.5,1.1,1.1,1.1
		c0.6,0,1.1-0.5,1.1-1.1v-2.2H51L57.3,72l2.8,3.6l0.5-0.2l0.6,2.1c0.1,0.2,0.3,0.4,0.5,0.4l0.2,0c0.3-0.1,0.5-0.4,0.4-0.7l-0.6-2.1
		l1.1-0.3l-7.1-29.4h4.1c0.2,0.6,0.5,1.1,0.9,1.1h1.2c0.6,0,1.1-1.1,1.1-1.9v-0.1C62.8,43.8,62.4,43.3,61.8,43.3z M49.6,44.4v-2.2
		c0-0.6-0.5-1.1-1.1-1.1c-0.6,0-1.1,0.5-1.1,1.1v2.2h-1.6L48.3,34l2.4,10.3H49.6z M52.4,32.4l-4.1,1.2l-4.1-1.2l-0.8,3.3
		c-0.7-1-1.2-2.2-1.2-3.6c0-3.3,2.7-6,6-6s6,2.7,6,6c0,1.2-0.4,2.3-1,3.3L52.4,32.4z"/>
</g>
</svg>